<?xml version="1.0" encoding="UTF-8"?>
<svg width="245px" height="46px" viewBox="0 0 245 46" version="1.1" xmlns="http://www.w3.org/2000/svg" xmlns:xlink="http://www.w3.org/1999/xlink">
    <!-- Generator: Sketch 43.2 (39069) - http://www.bohemiancoding.com/sketch -->
    <title>Group</title>
    <desc>Created with Sketch.</desc>
    <defs></defs>
    <g id="Page-1" stroke="none" stroke-width="1" fill="none" fill-rule="evenodd">
        <g id="Group" fill-rule="nonzero" fill="#FFFFFF">
            <path d="M3.55271368e-15,1.6 L10.3,1.6 L10.3,44 L0,44 L3.55271368e-15,1.6 Z M27.9,44 L17.6,44 L17.6,1.6 L27.9,1.6 L43.4,25.4 L43.4,1.6 L53.7,1.6 L53.7,44 L43.4,44 L27.9,19.8 L27.9,44 Z M71.2,44 L60.9,44 L60.9,1.6 L71.2,1.6 L86.7,25.4 L86.7,1.6 L97,1.6 L97,44 L86.7,44 L71.2,19.8 L71.2,44 Z M122.8,0.9 L128.8,0.9 L128.8,17.7 L122.8,17.7 L122.8,0.9 Z M179.2,29.3 L179.2,32.9 L167.8,32.9 L167.8,11.8 L172.1,11.8 L172.1,29.3 L179.2,29.3 Z M184.1,22.4 C184.1,26.3 186.9,29.4 190.6,29.4 C194.2,29.4 197.1,26.4 197.1,22.5 C197.1,18.4 194.4,15.4 190.6,15.4 C186.9,15.4 184.1,18.4 184.1,22.4 L184.1,22.4 Z M198.8,14.9 C200.6,16.9 201.5,19.4 201.5,22.5 C201.5,28.5 196.7,33.4 190.7,33.4 C184.5,33.4 179.7,28.6 179.7,22.5 C179.7,16.2 184.5,11.4 190.8,11.4 C193.9,11.4 196.7,12.6 198.8,14.9 L198.8,14.9 Z M209.3,20.5 L216.7,20.5 L216.7,24.1 L209.3,24.1 L209.3,32.9 L204.9,32.9 L204.9,11.8 L216.7,11.8 L216.7,15.3 L209.3,15.3 L209.3,20.5 Z M229.7,32.9 L225.4,32.9 L225.4,15.3 L220.3,15.3 L220.3,11.8 L234.7,11.8 L234.7,15.3 L229.7,15.3 L229.7,32.9 Z" id="Shape"></path>
            <path d="M132.3,1.5 L132.3,12.3 C135.7,14.5 137.9,18.5 137.9,23.3 C137.9,30.2 132.5,35.8 125.8,35.8 C119,35.8 113.6,30.2 113.6,23.1 C113.6,18.4 115.8,14.5 119.2,12.3 L119.2,1.6 C115.8,2.6 112.7,4.3 110.2,6.6 C105.5,11.1 103,16.9 103,23.1 C103,35.5 113.2,45.3 126.1,45.3 C138.6,45.3 148.7,35.3 148.7,23 C148.5,12.4 141.9,4 132.3,1.5" id="Shape"></path>
            <path d="M239.9,39.7 L154,39.7 C157.7,36.1 160,29.4 160,22.8 C160,16.2 157.4,9.3 154,5.9 L239.9,5.9 L239.9,39.7 Z M244.3,44 L244.3,1.6 L143.3,1.6 C149.9,5.3 153.8,11.8 154.9,19.3 C155.1,20.4 155.2,21.6 155.2,22.8 C155.2,24 155.1,25.2 154.9,26.3 C153.8,33.8 149.9,40.3 143.3,44 L244.3,44 Z" id="Shape"></path>
        </g>
    </g>
</svg>