<svg xmlns="http://www.w3.org/2000/svg" viewBox="0 0 244.3 44.4"><defs><style>.cls-1{fill:#fff;}.cls-2{fill:#e4b302;}</style></defs><title>logo_innoloft_without-rim</title><g id="Ebene_2" data-name="Ebene 2"><g id="Ebene_1-2" data-name="Ebene 1"><rect class="cls-1" y="0.7" width="10.3" height="42.4"/><polygon class="cls-1" points="27.9 43.1 17.6 43.1 17.6 0.7 27.9 0.7 43.4 24.5 43.4 0.7 53.7 0.7 53.7 43.1 43.4 43.1 27.9 18.9 27.9 43.1"/><polygon class="cls-1" points="71.2 43.1 60.9 43.1 60.9 0.7 71.2 0.7 86.7 24.5 86.7 0.7 97 0.7 97 43.1 86.7 43.1 71.2 18.9 71.2 43.1"/><rect class="cls-2" x="122.8" width="6" height="16.8"/><polygon class="cls-1" points="179.2 28.4 179.2 32 167.8 32 167.8 10.9 172.1 10.9 172.1 28.4 179.2 28.4"/><path class="cls-1" d="M184.1,21.5c0,3.9,2.8,7,6.5,7a6.65,6.65,0,0,0,6.5-6.9c0-4.1-2.7-7.1-6.5-7.1s-6.5,3-6.5,7M198.8,14a10.87,10.87,0,0,1,2.7,7.6,10.9,10.9,0,1,1-21.8,0,10.89,10.89,0,0,1,11.1-11.1,10.6,10.6,0,0,1,8,3.5"/><polygon class="cls-1" points="209.3 19.6 216.7 19.6 216.7 23.2 209.3 23.2 209.3 32 204.9 32 204.9 10.9 216.7 10.9 216.7 14.4 209.3 14.4 209.3 19.6"/><polygon class="cls-1" points="229.7 32 225.4 32 225.4 14.4 220.3 14.4 220.3 10.9 234.7 10.9 234.7 14.4 229.7 14.4 229.7 32"/><path class="cls-2" d="M132.3.6V11.4a12.83,12.83,0,0,1,5.6,11,12.16,12.16,0,1,1-24.3-.2,12.6,12.6,0,0,1,5.6-10.8V.7a22.75,22.75,0,0,0-9,5A22.59,22.59,0,0,0,103,22.2c0,12.4,10.2,22.2,23.1,22.2a22.45,22.45,0,0,0,22.6-22.3c-.2-10.6-6.8-19-16.4-21.5"/><path class="cls-1" d="M239.9,38.8H154c3.7-3.6,6-10.3,6-16.9S157.4,8.4,154,5h85.9Zm4.4,4.3V.7h-101c6.6,3.7,10.5,10.2,11.6,17.7a20.57,20.57,0,0,1,0,7c-1.1,7.5-5,14-11.6,17.7Z"/></g></g></svg>