<svg version="1" xmlns="http://www.w3.org/2000/svg" width="346.667" height="346.667" viewBox="0 0 260.000000 260.000000"><path d="M113.9 15.8v81.7l.1 5 14-.2c19-.2 18.9-.1 18-5.8-.4-2.5-.3-4.5.2-4.5s.6-.5.2-1.2c-1-1.7-1.1-6.8 0-6.8.5 0 .5-.6 0-1.3-1.1-1.5-1.1-3.8-.1-5.5.5-.6.5-1.2 0-1.2-.9 0-.8-21.4.2-22.9.3-.6.3-1.1-.2-1.1-.4 0-.8-1.8-.8-4s.4-4 .8-4c.5 0 .5-.5.1-1.2-1-1.6-1.1-6.8-.1-6.8.5 0 .5-.5.1-1.2s-.8-5.7-.8-11.3l-.1-10-15.7-.2-15.8-.2-.1 2.7z"/><path d="M164.8 16.6c-.4.7-.9 19.2-.8 32.4 0 24.2.1 24.8 2.4 26.3 4 2.7 12.2 11.1 15.5 16 3.8 5.6 8 14.5 9.3 19.6.5 2 1.1 4.5 1.4 5.6.3 1.1.6 4.4.8 7.2.1 2.9.6 5.6.9 6 .4.3.1 1.3-.6 2.1-1 1.3-.9 1.4.2.7 1-.6 1.2-.4.6.5-.5.7-.9 3.6-1.1 6.4-.1 2.8-.7 6.5-1.2 8.3-.6 1.7-.8 3.4-.4 3.7.3.3 0 .6-.7.6s-1 .4-.7.9c.3.4-1.1 4.2-3.2 8.2-3.6 7-5.5 9.9-9.4 14.1-1 1-1.8 2.3-1.8 3 0 .6-.3.9-.6.5-.3-.3-1.8.6-3.2 2.1-4.3 4.3-17.3 11.9-21.4 12.6-.7.1-1.9.5-2.5.9-.7.4-2.8.9-4.6 1.1-1.9.2-3.9.6-4.4.9-1.2.8-19.6.2-23.6-.7-5.6-1.3-16.2-5.7-19.3-8.1-1.8-1.4-3.5-2.5-3.8-2.5-2.3 0-13.9-12.1-17.2-18.1-1-1.9-2.3-3.7-2.7-4-.5-.3-.8-.8-.7-1 0-.2-.6-2.1-1.4-4.1-.9-2.1-1.6-4.4-1.6-5.2 0-.8-.4-1.7-1-2.1-.5-.3-.7-1.2-.3-2 .3-.8.1-1.5-.3-1.5-1.1 0-1.4-3.7-1.4-17 .1-13.3.2-15 1.2-15 .4 0 .7-.3.6-.8-.4-1.5 2.4-11.2 3.3-11.2.5 0 .8-.3.7-.8-.2-1.3 1.4-4.6 5.3-10.2C82 84.8 85.5 81 91 76.9l4.5-3.4V45.2c0-24.7-.2-28.1-1.5-27.6-.8.4-2.3.6-3.2.6-1 0-1.8.3-1.8.8 0 .4-1.8 1.1-4 1.5-2.2.4-4 1.1-4 1.6s-.6.9-1.4.9c-2.6 0-20 10-21.8 12.5-.4.5-.8.7-.8.2 0-.4-.8.1-1.9 1-3.3 3.2-8.1 7.1-8.1 6.7 0-.4-5.1 5.2-9.1 10-1.3 1.6-3.1 3.7-3.9 4.6-4.2 4.5-16.9 27-15.3 27 .4 0 .3.4-.4.8-.6.4-1.4 2-1.7 3.5-.2 1.4-.8 3.2-1.3 3.9-.4.7-.8 1.7-1 2.3-.1.5-.4 1.9-.7 3-.2 1.1-1.2 5-2 8.7-.9 3.7-1.9 7.5-2.2 8.5-.5 1.5-.4 1.6.5.3.7-.9 1.1-1 1.1-.3 0 .6-.5 1.5-1.1 1.8-1.2.8-1.1 27.3.2 29 .4.5.9 2.8 1.2 5 .3 2.2 1 5.4 1.5 7.2.6 1.7.8 3.4.4 3.7-.3.3 0 .6.6.6.7 0 1.1.3 1 .7-.4 1.5 2.6 10.3 3.5 10.3.5 0 .7.7.3 1.5-.3.8-.1 1.5.4 1.5.6 0 .9.4.8.8-.3.9 10 18.6 12.7 21.8 5.9 6.9 10.2 11.8 11.3 12.8.7.6 2.6 2.3 4.2 3.8 1.5 1.6 3.3 2.8 3.9 2.8.6 0 1.1.4 1.1.8 0 1.3 8.6 7.2 9.4 6.5.3-.3.6-.1.6.5s1.7 1.9 3.8 2.9c2 .9 3.9 2 4.2 2.3.5.6 11.7 6 12.5 6 .2 0 1.4.4 2.7.9 1.3.5 2.6.9 3 1 .4.1 2.7.9 5 1.7 2.4.8 5.8 1.7 7.6 2 1.8.3 5.5 1.1 8.2 1.8 2.7.7 4.7 1 4.5.7-.2-.4.5-.7 1.5-.7s1.6.4 1.4.8c-.7 1.1 25 1 31.6-.2 8.6-1.5 11.3-2 13.5-2.7 2.7-.9 4.7-1.4 6.3-1.5.6-.1 1.2-.4 1.2-.8s.6-.7 1.3-.8c1.2-.1 2.1-.3 6.5-1.7 1.2-.4 2.2-1.2 2.2-1.8 0-.6.3-.8.6-.4 1.2 1.1 17.3-7.8 22.5-12.5 1-1 2.2-1.8 2.7-1.8.6 0 14.6-13.5 18.4-18 4.3-4.9 10.7-14.4 10.2-15.2-.3-.4-.1-.8.3-.8 2 0 12.1-23.2 11.5-26.3-.1-.4.3-.7.9-.7.5 0 .9-.8.8-1.8-.2-.9.3-4.2 1.1-7.2 2-7.6 2-39.8.1-43.5-.3-.6-.6-2.1-.7-3.5-.1-1.4-.3-2.5-.4-2.5-.1 0-.4-.9-.5-2-.2-1.1-1-3.9-1.8-6.2-.9-2.2-1.3-4.4-1-4.7.4-.3.1-.6-.5-.6-.7 0-1.2-.6-1.2-1.4 0-.7-.8-3.1-1.7-5.2-.9-2.2-1.6-4.2-1.5-4.7.1-.4-.1-.7-.6-.7-.4 0-1.4-1.5-2.1-3.3-3-6.9-11.1-17.9-18.1-24.9-2.6-2.6-4.5-5-4.2-5.3.3-.3.1-.5-.4-.5s-2.1-1-3.6-2.3c-1.4-1.2-3.6-3-4.8-4-8.1-6.8-32.8-19.1-38.5-19.2-.5 0-1.3-.4-1.6-.9-.4-.4-.9-.4-1.1 0z"/></svg>