<svg width="16" height="16" viewBox="0 0 16 16" fill="none" xmlns="http://www.w3.org/2000/svg">
<path d="M16 0H0V16H16V0Z" fill="white" fill-opacity="0.01"/>
<path fill-rule="evenodd" clip-rule="evenodd" d="M2 2.66667C2 2.29848 2.29848 2 2.66667 2H8.66667C8.84348 2 9.01305 2.07024 9.13807 2.19526L14.5292 7.58636C15.2529 8.31442 15.2529 9.49031 14.5292 10.2184L14.5278 10.2198L10.226 14.5215C10.226 14.5216 10.2261 14.5214 10.226 14.5215C9.87594 14.8719 9.40065 15.069 8.90537 15.069C8.40992 15.069 7.93485 14.872 7.58472 14.5215L2.19552 9.13833C2.07034 9.01329 2 8.84361 2 8.66667V2.66667ZM3.33333 3.33333V8.39031L8.52802 13.5792C8.62808 13.6794 8.76381 13.7356 8.90537 13.7356C9.04695 13.7356 9.18269 13.6794 9.28268 13.5792L13.5836 9.27836C13.5838 9.27816 13.584 9.27796 13.5842 9.27776C13.7901 9.06991 13.7901 8.73482 13.5842 8.52697C13.584 8.52677 13.5838 8.52657 13.5836 8.52637L8.39052 3.33333H3.33333Z" fill="#000"/>
<path fill-rule="evenodd" clip-rule="evenodd" d="M6.16658 7.00001C6.62682 7.00001 6.99992 6.62691 6.99992 6.16668C6.99992 5.70644 6.62682 5.33334 6.16658 5.33334C5.70635 5.33334 5.33325 5.70644 5.33325 6.16668C5.33325 6.62691 5.70635 7.00001 6.16658 7.00001Z" fill="#000"/>
</svg>
