<svg width="16" height="16" viewBox="0 0 16 16" fill="none" xmlns="http://www.w3.org/2000/svg">
<path d="M16 0H0V16H16V0Z" fill="white" fill-opacity="0.01"/>
<path fill-rule="evenodd" clip-rule="evenodd" d="M1.33325 1.99998C1.33325 1.63179 1.63173 1.33331 1.99992 1.33331H6.66659C7.03478 1.33331 7.33325 1.63179 7.33325 1.99998V5.66665C7.33325 6.03484 7.03478 6.33331 6.66659 6.33331H1.99992C1.63173 6.33331 1.33325 6.03484 1.33325 5.66665V1.99998ZM2.66659 2.66665V4.99998H5.99992V2.66665H2.66659Z" fill="#000"/>
<path fill-rule="evenodd" clip-rule="evenodd" d="M8.66675 10.3334C8.66675 9.96516 8.96522 9.66669 9.33341 9.66669H14.0001C14.3683 9.66669 14.6667 9.96516 14.6667 10.3334V14C14.6667 14.3682 14.3683 14.6667 14.0001 14.6667H9.33341C8.96522 14.6667 8.66675 14.3682 8.66675 14V10.3334ZM10.0001 11V13.3334H13.3334V11H10.0001Z" fill="#000"/>
<path fill-rule="evenodd" clip-rule="evenodd" d="M8.66675 1.99998C8.66675 1.63179 8.96522 1.33331 9.33341 1.33331H14.0001C14.3683 1.33331 14.6667 1.63179 14.6667 1.99998V7.66665C14.6667 8.03483 14.3683 8.33331 14.0001 8.33331H9.33341C8.96522 8.33331 8.66675 8.03483 8.66675 7.66665V1.99998ZM10.0001 2.66665V6.99998H13.3334V2.66665H10.0001Z" fill="#000"/>
<path fill-rule="evenodd" clip-rule="evenodd" d="M1.33325 8.33335C1.33325 7.96516 1.63173 7.66669 1.99992 7.66669H6.66659C7.03478 7.66669 7.33325 7.96516 7.33325 8.33335V14C7.33325 14.3682 7.03478 14.6667 6.66659 14.6667H1.99992C1.63173 14.6667 1.33325 14.3682 1.33325 14V8.33335ZM2.66659 9.00002V13.3334H5.99992V9.00002H2.66659Z" fill="#000"/>
</svg>
