<svg width="24" height="24" viewBox="0 0 24 24" fill="none" xmlns="http://www.w3.org/2000/svg">
<path d="M24 0H0V24H24V0Z" fill="white" fill-opacity="0.01"/>
<path fill-rule="evenodd" clip-rule="evenodd" d="M11.3753 2.21913C11.7405 1.92696 12.2595 1.92696 12.6247 2.21913L20.1245 8.21897C20.1245 8.21902 20.1246 8.21908 20.1247 8.21913L22.6247 10.2191C23.0559 10.5641 23.1259 11.1934 22.7808 11.6247C22.4358 12.056 21.8065 12.1259 21.3753 11.7809L20.5 11.0806V21C20.5 21.5523 20.0523 22 19.5 22H4.49998C3.94769 22 3.49998 21.5523 3.49998 21V11.0806L2.62467 11.7809C2.19341 12.1259 1.56412 12.056 1.21911 11.6247C0.874097 11.1934 0.944019 10.5641 1.37528 10.2191L3.87528 8.21913C3.87538 8.21905 3.87548 8.21897 3.87558 8.21889L11.3753 2.21913ZM5.49998 9.48062L12 4.28062L18.5 9.48062V20H5.49998V9.48062Z" fill="#000"/>
<path fill-rule="evenodd" clip-rule="evenodd" d="M8.5 14.5C8.5 13.9477 8.94772 13.5 9.5 13.5H14.5C15.0523 13.5 15.5 13.9477 15.5 14.5V21C15.5 21.5523 15.0523 22 14.5 22H9.5C8.94772 22 8.5 21.5523 8.5 21V14.5ZM10.5 15.5V20H13.5V15.5H10.5Z" fill="#000"/>
<path fill-rule="evenodd" clip-rule="evenodd" d="M3.5 21C3.5 20.4477 3.94772 20 4.5 20H19.5C20.0523 20 20.5 20.4477 20.5 21C20.5 21.5523 20.0523 22 19.5 22H4.5C3.94772 22 3.5 21.5523 3.5 21Z" fill="#000"/>
</svg>
