<svg width="24" height="24" viewBox="0 0 24 24" fill="none" xmlns="http://www.w3.org/2000/svg">
<path d="M24 0H0V24H24V0Z" fill="white" fill-opacity="0.01"/>
<path fill-rule="evenodd" clip-rule="evenodd" d="M8.49408 23H2C1.44772 23 1 22.5523 1 22V12C1 11.6895 1.1442 11.3967 1.39029 11.2074L7.89029 6.20736C8.17836 5.98577 8.54876 5.94546 8.86434 6.06856L22.3473 11.0623C22.7396 11.2076 23 11.5817 23 12V22C23 22.5523 22.5523 23 22 23M7.5 9.03085L3 12.4924V21H7.5V9.03085ZM21 21V12.696L9.5 8.43676V21H12V14.5C12 14.1786 12.1545 13.8767 12.4153 13.6888C12.6761 13.5008 13.0113 13.4497 13.3162 13.5513L17.8162 15.0513C18.2246 15.1874 18.5 15.5696 18.5 16V21H21ZM16.5 16.7208V21H14V15.8874L16.5 16.7208Z" fill="#000"/>
<path d="M8.49408 23L8.5 23L8.49408 23Z" fill="#000"/>
</svg>
