<svg width="28" height="28" viewBox="0 0 28 28" fill="none" xmlns="http://www.w3.org/2000/svg">
<path d="M28 0H0V28H28V0Z" fill="white" fill-opacity="0.01"/>
<path fill-rule="evenodd" clip-rule="evenodd" d="M3.4707 6.97072C3.4707 6.32639 3.99304 5.80405 4.63737 5.80405H23.3041C23.9484 5.80405 24.4707 6.32639 24.4707 6.97072C24.4707 7.61505 23.9484 8.13739 23.3041 8.13739H4.63737C3.99304 8.13739 3.4707 7.61505 3.4707 6.97072Z" fill="#000"/>
<path fill-rule="evenodd" clip-rule="evenodd" d="M3.4707 13.9707C3.4707 13.3264 3.99304 12.8041 4.63737 12.8041H23.3041C23.9484 12.8041 24.4707 13.3264 24.4707 13.9707C24.4707 14.6151 23.9484 15.1374 23.3041 15.1374H4.63737C3.99304 15.1374 3.4707 14.6151 3.4707 13.9707Z" fill="#000"/>
<path fill-rule="evenodd" clip-rule="evenodd" d="M3.4707 20.9707C3.4707 20.3264 3.99304 19.8041 4.63737 19.8041H23.3041C23.9484 19.8041 24.4707 20.3264 24.4707 20.9707C24.4707 21.6151 23.9484 22.1374 23.3041 22.1374H4.63737C3.99304 22.1374 3.4707 21.6151 3.4707 20.9707Z" fill="#000"/>
</svg>
