<svg width="16" height="16" viewBox="0 0 16 16" fill="none" xmlns="http://www.w3.org/2000/svg">
<path fill-rule="evenodd" clip-rule="evenodd" d="M7.66667 3.00002C4.72116 3.00002 2.33333 5.38784 2.33333 8.33335C2.33333 11.2789 4.72116 13.6667 7.66667 13.6667C10.6122 13.6667 13 11.2789 13 8.33335C13 7.96516 13.2985 7.66669 13.6667 7.66669C14.0349 7.66669 14.3333 7.96516 14.3333 8.33335C14.3333 12.0152 11.3486 15 7.66667 15C3.98478 15 1 12.0152 1 8.33335C1 4.65146 3.98478 1.66669 7.66667 1.66669C8.03486 1.66669 8.33333 1.96516 8.33333 2.33335C8.33333 2.70154 8.03486 3.00002 7.66667 3.00002Z" fill="#000"/>
<path fill-rule="evenodd" clip-rule="evenodd" d="M10.465 5.67961C10.5737 5.70136 10.6727 5.74951 10.7553 5.81707C10.8411 5.88712 10.9051 5.97438 10.9461 6.06997C10.9834 6.15701 11.0017 6.25095 11.0001 6.34509V8.99996C11.0001 9.36815 10.7016 9.66663 10.3334 9.66663C9.96524 9.66663 9.66677 9.36815 9.66677 8.99996V8.13931C8.97661 8.85365 8.32844 9.33827 7.62509 9.65087C6.54133 10.1325 5.40489 10.1667 4.00016 10.1667C3.63197 10.1667 3.3335 9.86818 3.3335 9.49999C3.3335 9.1318 3.63197 8.83332 4.00016 8.83332C5.42877 8.83332 6.29233 8.78411 7.08357 8.43245C7.64539 8.18275 8.21108 7.7605 8.90776 6.99996H7.66677C7.29858 6.99996 7.0001 6.70148 7.0001 6.33329C7.0001 5.9651 7.29858 5.66663 7.66677 5.66663H10.3334C10.3335 5.66663 10.3336 5.66663 10.3337 5.66663C10.3776 5.66661 10.4216 5.67091 10.465 5.67961Z" fill="#000"/>
<path fill-rule="evenodd" clip-rule="evenodd" d="M10.3334 1C10.7016 1 11.0001 1.29848 11.0001 1.66667V3.16667C11.0001 3.53486 10.7016 3.83333 10.3334 3.83333C9.96522 3.83333 9.66675 3.53486 9.66675 3.16667V1.66667C9.66675 1.29848 9.96522 1 10.3334 1Z" fill="#000"/>
<path fill-rule="evenodd" clip-rule="evenodd" d="M12.3333 5.66667C12.3333 5.29848 12.6317 5 12.9999 5H14.4999C14.8681 5 15.1666 5.29848 15.1666 5.66667C15.1666 6.03486 14.8681 6.33333 14.4999 6.33333H12.9999C12.6317 6.33333 12.3333 6.03486 12.3333 5.66667Z" fill="#000"/>
<path fill-rule="evenodd" clip-rule="evenodd" d="M14.1012 1.86195C14.3615 2.1223 14.3615 2.54441 14.1012 2.80476L12.8048 4.10112C12.5445 4.36147 12.1224 4.36147 11.862 4.10113C11.6017 3.84078 11.6017 3.41867 11.862 3.15832L13.1584 1.86195C13.4187 1.6016 13.8408 1.6016 14.1012 1.86195Z" fill="#000"/>
</svg>
