<svg width="24" height="24" viewBox="0 0 24 24" fill="none" xmlns="http://www.w3.org/2000/svg">
<path d="M24 0H0V24H24V0Z" fill="white" fill-opacity="0.01"/>
<path fill-rule="evenodd" clip-rule="evenodd" d="M11.493 1.13806C11.8059 0.95398 12.1941 0.95398 12.507 1.13806L21.007 6.13791C21.3125 6.31758 21.5 6.64548 21.5 6.99985V16.9999C21.5 17.3543 21.3125 17.6822 21.007 17.8618L12.507 22.8619C12.1941 23.046 11.8059 23.046 11.493 22.8619L2.99297 17.8618C2.68754 17.6822 2.5 17.3543 2.5 16.9999V6.99985C2.5 6.64548 2.68755 6.31758 2.99299 6.13791L11.493 1.13806ZM4.5 7.5718V16.428L12 20.8398L19.5 16.428V7.57181L12 3.16017L4.5 7.5718Z" fill="#000"/>
<path fill-rule="evenodd" clip-rule="evenodd" d="M16.5277 10.3466C16.996 10.0539 17.1383 9.43689 16.8455 8.96859C16.5527 8.50029 15.9358 8.358 15.4675 8.65077L11.9969 10.8205L8.53053 8.65103C8.06238 8.35803 7.44534 8.50002 7.15234 8.96818C6.85934 9.43633 7.00133 10.0534 7.46949 10.3464L11 12.556V16.5C11 17.0523 11.4477 17.5 12 17.5C12.5523 17.5 13 17.0523 13 16.5V12.552L16.5277 10.3466Z" fill="#000"/>
</svg>
